<svg width="3604" height="1410" viewBox="0 0 3604 1410" fill="none" xmlns="http://www.w3.org/2000/svg">
<rect width="3604" height="1410" fill="white"/>
<path d="M1061 751.96H1005.98L992.543 778H954.953L1034.33 630.58H1075.91L1103.21 778H1065.2L1061 751.96ZM1056.8 724.66L1048.19 670.06L1020.05 724.66H1056.8ZM1160.19 750.7H1207.23L1202.4 778H1119.45L1145.49 630.58H1181.4L1160.19 750.7ZM1349.51 678.04C1348.11 686.58 1344.82 694.42 1339.64 701.56C1334.46 708.56 1327.39 714.23 1318.43 718.57C1309.61 722.91 1299.18 725.08 1287.14 725.08H1264.88L1255.43 778H1219.52L1245.56 630.58H1303.73C1319.13 630.58 1330.75 634.01 1338.59 640.87C1346.43 647.59 1350.35 656.76 1350.35 668.38C1350.35 671.88 1350.07 675.1 1349.51 678.04ZM1289.24 696.94C1302.68 696.94 1310.59 690.64 1312.97 678.04C1313.25 675.8 1313.39 674.19 1313.39 673.21C1313.39 668.73 1311.92 665.3 1308.98 662.92C1306.18 660.4 1301.84 659.14 1295.96 659.14H1276.43L1269.92 696.94H1289.24ZM1504.29 630.58L1478.25 778H1442.34L1453.05 716.89H1397.19L1386.48 778H1350.57L1376.61 630.58H1412.52L1402.23 688.54H1458.09L1468.38 630.58H1504.29ZM1600.56 751.96H1545.54L1532.1 778H1494.51L1573.89 630.58H1615.47L1642.77 778H1604.76L1600.56 751.96ZM1596.36 724.66L1587.75 670.06L1559.61 724.66H1596.36ZM1839.7 630.58L1834.87 658.93H1795.6L1774.6 778H1738.69L1759.69 658.93H1720.63L1725.67 630.58H1839.7ZM1888.59 658.93L1883.34 689.59H1931.43L1926.6 716.68H1878.51L1872.63 749.65H1927.02L1921.98 778H1831.68L1857.72 630.58H1948.02L1942.98 658.93H1888.59ZM2041.69 751.96H1986.67L1973.23 778H1935.64L2015.02 630.58H2056.6L2083.9 778H2045.89L2041.69 751.96ZM2037.49 724.66L2028.88 670.06L2000.74 724.66H2037.49ZM2293.12 630.58L2267.08 778H2231.17L2246.92 689.59L2198.2 778H2169.22L2151.58 689.17L2136.04 778H2100.13L2126.17 630.58H2168.59L2192.11 732.64L2250.91 630.58H2293.12ZM2348.65 704.08C2351.17 689.52 2356.56 676.57 2364.82 665.23C2373.22 653.75 2383.58 644.86 2395.9 638.56C2408.22 632.12 2421.52 628.9 2435.8 628.9C2453.3 628.9 2467.44 633.52 2478.22 642.76C2489.14 652 2495.3 664.6 2496.7 680.56H2457.22C2455.4 674.54 2452.04 669.99 2447.14 666.91C2442.38 663.69 2436.5 662.08 2429.5 662.08C2418.44 662.08 2408.85 665.93 2400.73 673.63C2392.61 681.19 2387.43 691.34 2385.19 704.08C2384.49 708 2384.14 711.43 2384.14 714.37C2384.14 724.17 2386.87 731.94 2392.33 737.68C2397.79 743.42 2405.28 746.29 2414.8 746.29C2421.66 746.29 2428.03 744.68 2433.91 741.46C2439.93 738.24 2444.97 733.62 2449.03 727.6H2488.51C2481.51 743.56 2470.94 756.16 2456.8 765.4C2442.66 774.5 2426.84 779.05 2409.34 779.05C2396.74 779.05 2385.75 776.6 2376.37 771.7C2366.99 766.8 2359.78 759.87 2354.74 750.91C2349.7 741.95 2347.18 731.52 2347.18 719.62C2347.18 714.3 2347.67 709.12 2348.65 704.08ZM2571.61 779.47C2559.15 779.47 2548.16 776.88 2538.64 771.7C2529.26 766.52 2521.98 759.24 2516.8 749.86C2511.62 740.48 2509.03 729.7 2509.03 717.52C2509.03 700.3 2512.74 684.97 2520.16 671.53C2527.58 657.95 2537.87 647.38 2551.03 639.82C2564.33 632.26 2579.38 628.48 2596.18 628.48C2608.78 628.48 2619.84 631.07 2629.36 636.25C2638.88 641.29 2646.23 648.5 2651.41 657.88C2656.59 667.12 2659.18 677.76 2659.18 689.8C2659.18 707.02 2655.47 722.49 2648.05 736.21C2640.63 749.79 2630.27 760.43 2616.97 768.13C2603.67 775.69 2588.55 779.47 2571.61 779.47ZM2577.07 746.29C2586.31 746.29 2594.43 743.91 2601.43 739.15C2608.43 734.39 2613.82 728.02 2617.6 720.04C2621.52 711.92 2623.48 703.17 2623.48 693.79C2623.48 683.71 2620.68 675.8 2615.08 670.06C2609.48 664.32 2601.64 661.45 2591.56 661.45C2582.32 661.45 2574.13 663.83 2566.99 668.59C2559.99 673.35 2554.53 679.72 2550.61 687.7C2546.83 695.54 2544.94 704.22 2544.94 713.74C2544.94 723.82 2547.74 731.8 2553.34 737.68C2558.94 743.42 2566.85 746.29 2577.07 746.29ZM2859.55 630.58L2833.51 778H2797.6L2813.35 689.59L2764.63 778H2735.65L2718.01 689.17L2702.47 778H2666.56L2692.6 630.58H2735.02L2758.54 732.64L2817.34 630.58H2859.55ZM2989.32 678.04C2987.92 686.58 2984.63 694.42 2979.45 701.56C2974.27 708.56 2967.2 714.23 2958.24 718.57C2949.42 722.91 2938.99 725.08 2926.95 725.08H2904.69L2895.24 778H2859.33L2885.37 630.58H2943.54C2958.94 630.58 2970.56 634.01 2978.4 640.87C2986.24 647.59 2990.16 656.76 2990.16 668.38C2990.16 671.88 2989.88 675.1 2989.32 678.04ZM2929.05 696.94C2942.49 696.94 2950.4 690.64 2952.78 678.04C2953.06 675.8 2953.2 674.19 2953.2 673.21C2953.2 668.73 2951.73 665.3 2948.79 662.92C2945.99 660.4 2941.65 659.14 2935.77 659.14H2916.24L2909.73 696.94H2929.05ZM3086.76 751.96H3031.74L3018.3 778H2980.71L3060.09 630.58H3101.67L3128.97 778H3090.96L3086.76 751.96ZM3082.56 724.66L3073.95 670.06L3045.81 724.66H3082.56ZM3277.09 778H3241.18L3197.29 687.07L3181.12 778H3145.21L3171.25 630.58H3207.16L3251.05 721.93L3267.22 630.58H3303.13L3277.09 778ZM3455.58 630.58L3387.33 729.28L3378.51 778H3342.6L3351.42 729.28L3317.61 630.58H3358.35L3375.99 692.11L3415.26 630.58H3455.58Z" fill="url(#paint0_linear_10_0)"/>
<g filter="url(#filter0_d_10_0)">
<path d="M581.422 743.504L453.17 613.999L578.694 303L703.308 610.218L581.422 743.504Z" fill="#818181"/>
<path d="M278.541 1056.4L579.617 741.619L884.331 1055.45L905.251 1106.5L579.617 965.652L258.53 1106.5L278.541 1056.4Z" fill="black"/>
<path d="M703.33 610.214L581.445 743.5L905.26 1106.49L703.33 610.214Z" fill="#717171"/>
<path d="M581.435 743.509L453.182 614.004L258.53 1106.5L581.435 743.509Z" fill="#555555"/>
</g>
<defs>
<filter id="filter0_d_10_0" x="156.53" y="217" width="846.73" height="1003.5" filterUnits="userSpaceOnUse" color-interpolation-filters="sRGB">
<feFlood flood-opacity="0" result="BackgroundImageFix"/>
<feColorMatrix in="SourceAlpha" type="matrix" values="0 0 0 0 0 0 0 0 0 0 0 0 0 0 0 0 0 0 127 0" result="hardAlpha"/>
<feOffset dx="-2" dy="14"/>
<feGaussianBlur stdDeviation="50"/>
<feColorMatrix type="matrix" values="0 0 0 0 0.05 0 0 0 0 0.05 0 0 0 0 0.05 0 0 0 0.31 0"/>
<feBlend mode="normal" in2="BackgroundImageFix" result="effect1_dropShadow_10_0"/>
<feBlend mode="normal" in="SourceGraphic" in2="effect1_dropShadow_10_0" result="shape"/>
</filter>
<linearGradient id="paint0_linear_10_0" x1="550.267" y1="495.387" x2="1614.99" y2="2214.87" gradientUnits="userSpaceOnUse">
<stop stop-color="#555555"/>
<stop offset="0.477081"/>
<stop offset="1" stop-color="#717171"/>
</linearGradient>
</defs>
</svg>
